<svg xmlns="http://www.w3.org/2000/svg" viewBox="0 0 612 612">
  <path fill="#2bbc8a" d="M612 510c0 56.1 -45.9 102 -102 102h-408c-56.1 0 -102 -45.9 -102 -102v-408c0 -56.1 45.9 -102 102 -102h408c56.1 0 102 45.9 102 102v408Z"/>
  <path fill="#333" opacity="0.15" d="M461.5 387.5c0 56.1 -45.9 102 -102 102h-91.5c-56.1 0 -102 -45.9 -102 -102v-153c0 -56.1 45.9 -102 102 -102h91.5c56.1 0 102 45.9 102 102v33.5m-40 -114L612 280v230c0 56.1 -45.9 102 -102 102h-230 0L190 453Z"/>
  <path fill="#fff" d="M461.5 387.5c0 56.1 -45.9 102 -102 102h-91.5c-56.1 0 -102 -45.9 -102 -102v-153c0 -56.1 45.9 -102 102 -102h91.5c56.1 0 102 45.9 102 102v33.5h-62.5c0 -84 0 -84 -84 -84h-2.5c-84 0 -84 0 -84 84v86c0 84 0 84 84 84h2.5c84 0 84 0 84 -84h-70c-20 0 -20 0 -20 -20h152.5m-142.5 0v-32.5c0 -20 0 -20 20 -20h40c20 0 20 0 20 20v32.5m-20 0v-15c0 -20 0 -20 -20 -20c-20 0 -20 0 -20 20v15m92.5 0v-35h-22.5v-10l22.5 -7.5h20v52.5Z"/>
</svg>