<svg xmlns="http://www.w3.org/2000/svg" viewBox="0 0 612 612">
  <!-- 背景 -->
  <path fill="#2bbc8a" d="M612 510
    c0 56.1 -45.9 102 -102 102
    h-408
    c-56.1 0 -102 -45.9 -102 -102
    v-408
    c0 -56.1 45.9 -102 102 -102
    h408
    c56.1 0 102 45.9 102 102
    v408
    Z"/>
  <!-- 阴影 -->
  <path fill="#333" opacity="0.25" d="M461.5 387.5
    c0 56.1 -45.9 102 -102 102
    h-91.5
    c-56.1 0 -102 -45.9 -102 -102
    v-255
    h193.5
    c56.1 0 102 45.9 102 102
    v33.5
    m-40 -114
    L612 280
    v230
    c0 56.1 -45.9 102 -102 102
    h-230 0
    L190 453
    Z"/>
  <!-- G字符 -->
  <path fill="#fff" d="M461.5 387.5
    c0 56.1 -45.9 102 -102 102
    h-91.5
    c-56.1 0 -102 -45.9 -102 -102
    v-255
    h193.5
    c56.1 0 102 45.9 102 102
    v33.5
    h-62.5
    v-2
    c0 -82 0 -82 -82 -82
    h-6.5
    c-82 0 -82 0 -82 82
    v91
    c0 82 0 82 82 82
    h6.5
    c82 0 82 0 82 -82
    h-70
    c-20 0 -20 0 -20 -20
    h152.5
    M268 132.5
    c0 -11 -9 -20 -20 -20 -11 0 -20 9 -20 20 0 11 9 20 20 20 11 0 20 -9 20 -20
    m-13 52
    c0 -8.3 -6.7 -15 -15 -15 -8.3 0 -15 6.7 -15 15 0 8.3 6.7 15 15 15 8.3 0 15 -6.7 15 -15
    m-50 -24
    c0 -5.5 -4.5 -10 -10 -10 -5.5 0 -10 4.5 -10 10 0 5.5 4.5 10 10 10 5.5 0 10 -4.5 10 -10
    Z"/>
  <!-- Y字符 -->
  <path fill="#fff" d="M312.5 340
    v-3
    c12 0 20 -8 20 -20 0 -25 20 -40 35 -40 -7 0 -15 8 -15 15 -5 7 -5 18 0 25 0 12 8 20 20 20
    h25.5
    c12 0 20 -8 20 -20 5 -7 5 -18 0 -25 0 -7 -8 -15 -15 -15 15 0 35 15 35 40 0 12 8 20 20 20
    v3
    Z"/>
</svg>